<svg width="839" height="109" viewBox="0 0 839 109" fill="none" xmlns="http://www.w3.org/2000/svg">
<path d="M10.781 97.9999H50.281" stroke="#332317" stroke-width="20"/>
<path d="M0.281006 19.9999C7.48101 19.9999 10.281 26.9999 10.281 29.4999" stroke="#332317" stroke-width="20"/>
<path d="M154.781 20.4999C130.836 20.4999 109.465 28.807 93.781 43.2704M66.781 108C66.781 81.1543 77.0423 58.7063 93.781 43.2704M93.781 9.49994V43.2704M51.781 9.49994V108M10.281 28.9999V108" stroke="#332317" stroke-width="20"/>
<path d="M153.781 96.9999C145.781 96.9999 142.781 101.5 142.781 108" stroke="#332317" stroke-width="20"/>
<path d="M105.281 108C105.281 87.4999 118.281 67.9999 137.281 61.9999C142.031 60.4999 144.781 55.4999 143.781 50.4999" stroke="#332317" stroke-width="20"/>
<path d="M208.131 43.138H205.187V39.642H207.257C208.775 39.642 209.327 38.86 210.201 37.342L211.397 34.766L197.781 10.34H202.335L213.283 30.534L222.483 10.34H226.853L213.375 39.32C212.041 42.08 210.753 43.138 208.131 43.138ZM252.432 10.34H256.572V43H252.432V28.142H234.446V43H230.306V10.34H234.446V24.462H252.432V10.34ZM268.726 43H264.632V10.34H268.772V37.25L287.678 10.34H291.542V43H287.402V16.596L268.726 43ZM324.646 34.582C324.646 39.596 320.322 43 315.078 43H299.576V10.34H315.814C320.414 10.34 323.266 14.526 323.266 18.666C323.266 21.84 321.564 24.922 318.574 26.256C322.3 27.36 324.646 30.534 324.646 34.582ZM314.388 13.928H303.716V24.83H314.112C317.01 24.83 319.172 22.346 319.172 19.402C319.172 16.32 317.148 13.928 314.388 13.928ZM320.46 33.846C320.46 30.81 318.298 28.188 315.4 28.188H303.716V39.412H315.078C318.114 39.412 320.46 36.79 320.46 33.846ZM334.577 39.32H352.609V43H330.437V10.34H352.195V14.02H334.577V24.6H349.895V28.05H334.577V39.32ZM362.429 43H358.289V10.34H371.905C377.609 10.34 381.795 15.63 381.795 20.782C381.795 26.118 377.977 31.27 372.181 31.27H362.429V43ZM362.429 14.02V27.59H371.951C375.309 27.59 377.609 24.508 377.609 20.782C377.609 16.872 374.849 14.02 371.675 14.02H362.429ZM395.649 43.368C390.911 43.368 387.001 41.252 384.839 37.71L388.013 35.778C389.531 38.354 392.199 39.872 395.557 39.872C400.019 39.872 402.641 37.48 402.641 33.8C402.641 30.304 400.249 27.82 396.017 27.82H392.659V24.554H396.063C399.375 24.554 401.491 22.208 401.491 19.172C401.491 15.952 399.191 13.744 395.419 13.744C392.245 13.744 389.761 15.216 388.427 17.608L385.391 15.538C387.461 12.088 390.819 9.972 395.603 9.972C401.537 9.972 405.493 13.33 405.493 18.62C405.493 21.794 403.929 24.692 400.847 26.026C404.665 27.084 406.827 30.258 406.827 34.168C406.827 40.01 402.135 43.368 395.649 43.368ZM416.968 43H412.874V10.34H417.014V37.25L435.92 10.34H439.784V43H435.644V16.596L416.968 43ZM471.37 10.34V14.02H460.1V43H455.96V14.02H444.69V10.34H471.37ZM480.214 39.32H498.246V43H476.074V10.34H497.832V14.02H480.214V24.6H495.532V28.05H480.214V39.32ZM527.477 10.34V14.02H516.207V43H512.067V14.02H500.797V10.34H527.477ZM548.863 43.138H545.919V39.642H547.989C549.507 39.642 550.059 38.86 550.933 37.342L552.129 34.766L538.513 10.34H543.067L554.015 30.534L563.215 10.34H567.585L554.107 39.32C552.773 42.08 551.485 43.138 548.863 43.138ZM597.301 43H582.673V10.34H605.075V13.974H586.813V24.278H597.025C604.201 24.278 607.697 27.958 607.697 33.432C607.697 38.86 604.293 43 597.301 43ZM586.813 27.59V39.366H596.795C601.579 39.366 603.465 36.33 603.465 33.294C603.465 30.35 601.993 27.59 596.657 27.59H586.813ZM617.046 39.32H635.078V43H612.906V10.34H634.664V14.02H617.046V24.6H632.364V28.05H617.046V39.32ZM653.377 43.23C644.223 43.23 638.013 35.042 638.013 26.67C638.013 18.022 644.683 10.11 653.469 10.11C662.623 10.11 668.787 18.574 668.787 26.716C668.787 35.41 662.209 43.23 653.377 43.23ZM642.199 26.67C642.199 33.34 646.661 39.504 653.423 39.504C660.415 39.504 664.601 32.972 664.601 26.67C664.601 20 660.047 13.882 653.423 13.882C646.477 13.882 642.199 20.322 642.199 26.67ZM678.679 43H674.539V10.34H693.537V14.02H678.679V43ZM702.757 43H698.617V10.34H712.233C717.937 10.34 722.123 15.63 722.123 20.782C722.123 26.118 718.305 31.27 712.509 31.27H702.757V43ZM702.757 14.02V27.59H712.279C715.637 27.59 717.937 24.508 717.937 20.782C717.937 16.872 715.177 14.02 712.003 14.02H702.757ZM721.491 43L734.877 10.34H738.373L751.713 43H747.297L743.433 33.432H729.725L725.907 43H721.491ZM730.553 30.212H742.513L736.625 15.124L730.553 30.212ZM757.452 49.256H753.772V39.32H755.244C758.694 39.32 760.35 34.398 760.856 19.448L761.086 10.34H781.326V39.32H785.374V49.256H781.694V43H757.452V49.256ZM760.764 39.32H777.186V14.02H764.904L764.766 19.954C764.49 31.546 763.34 37.204 760.764 39.32ZM797.326 43.138H794.382V39.642H796.452C797.97 39.642 798.522 38.86 799.396 37.342L800.592 34.766L786.976 10.34H791.53L802.478 30.534L811.678 10.34H816.048L802.57 39.32C801.236 42.08 799.948 43.138 797.326 43.138ZM248.491 108H201.851V68.95H209.441V101.345H221.376V68.95H228.966V101.345H240.901V68.95H248.491V108ZM264.611 108.275H260.431V102.005H263.511C265.436 102.005 266.261 101.235 266.921 99.475L267.801 97.55L252.291 68.95H260.651L271.156 89.85L280.286 68.95H288.261L272.696 103.05C270.771 106.955 268.626 108.275 264.611 108.275ZM331.198 108H323.608V82.37L313.598 101.455H309.363L299.353 82.37V108H291.763V68.95H299.903L311.453 91.17L323.113 68.95H331.198V108ZM335.556 108L349.966 68.95H357.666L372.021 108H364.211L360.581 98.265H346.941L343.366 108H335.556ZM348.206 92.93H359.206L353.816 76.815L348.206 92.93ZM383.894 108H376.304V68.95H392.859C400.064 68.95 405.289 75.495 405.289 81.93C405.289 88.53 400.339 94.91 393.134 94.91H383.894V108ZM383.894 75.605V88.255H392.694C395.499 88.255 397.589 85.725 397.589 81.93C397.589 77.805 395.059 75.605 392.364 75.605H383.894ZM408.207 88.145C408.207 78.685 415.302 68.73 427.457 68.73C434.662 68.73 440.052 72.195 442.637 77.255L436.807 81.27C434.827 76.815 430.702 75.44 427.237 75.44C419.592 75.44 415.907 82.26 415.907 88.42C415.907 95.405 420.527 101.565 427.347 101.565C430.922 101.565 435.212 99.915 436.972 95.68L443.187 99.255C440.877 104.975 433.397 108.33 427.127 108.33C416.072 108.33 408.207 98.1 408.207 88.145ZM455.922 108H448.387V68.95H455.922V84.68H459.772L471.377 68.95H479.847L465.657 87.87L480.947 108H471.762L459.662 91.555H455.922V108ZM493.678 108H486.418V68.95H493.953V97.33L512.873 68.95H519.913V108H512.378V79.95L493.678 108ZM563.794 108H556.589V104.48C547.294 103.875 539.154 97.385 539.154 87.265C539.154 76.705 547.734 70.435 556.589 69.995V67.025H563.794V69.995C572.759 70.435 581.229 76.925 581.229 87.265C581.229 97.495 572.869 103.875 563.794 104.48V108ZM556.809 98.375V76.1C551.254 76.43 546.744 80.445 546.744 87.265C546.744 94.14 551.584 98.1 556.809 98.375ZM563.574 76.1V98.375C569.019 97.935 573.639 94.03 573.639 87.265C573.639 80.555 569.019 76.375 563.574 76.1ZM581.606 108L596.016 68.95H603.716L618.071 108H610.261L606.631 98.265H592.991L589.416 108H581.606ZM594.256 92.93H605.256L599.866 76.815L594.256 92.93ZM629.999 108H622.464V68.95H629.999V84.68H633.849L645.454 68.95H653.924L639.734 87.87L655.024 108H645.839L633.739 91.555H629.999V108ZM668.195 108.275H664.015V102.005H667.095C669.02 102.005 669.845 101.235 670.505 99.475L671.385 97.55L655.875 68.95H664.235L674.74 89.85L683.87 68.95H691.845L676.28 103.05C674.355 106.955 672.21 108.275 668.195 108.275ZM727.797 108H720.207V75.605H708.767L708.547 82.205C707.832 102.885 703.487 108.22 692.982 108.22V101.675C698.262 101.675 700.792 98.045 701.397 80.06L701.782 68.95H727.797V108ZM765.158 68.95V75.605H752.673V108H745.138V75.605H732.653V68.95H765.158ZM777.595 101.345H797.12V108H770.005V68.95H796.625V75.605H777.595V85.01H794.04V91.17H777.595V101.345ZM832.243 68.95V75.605H819.758V108H812.223V75.605H799.738V68.95H832.243Z" fill="#332317"/>
</svg>
