<svg width="793" height="124" viewBox="0 0 793 124" fill="none" xmlns="http://www.w3.org/2000/svg">
<mask id="path-1-outside-1_32_48" maskUnits="userSpaceOnUse" x="378.281" y="11" width="415" height="40" fill="black">
<rect fill="white" x="378.281" y="11" width="415" height="40"/>
<path d="M379.684 49V12.6364H384.088V28.8295H403.477V12.6364H407.88V49H403.477V32.7358H384.088V49H379.684ZM418.188 49H413.571L426.923 12.6364H431.469L444.821 49H440.205L429.338 18.3892H429.054L418.188 49ZM419.892 34.7955H438.5V38.7017H419.892V34.7955ZM478.038 24H473.634C473.374 22.7334 472.918 21.6207 472.267 20.6619C471.628 19.7031 470.847 18.8982 469.923 18.2472C469.012 17.5843 468 17.0871 466.887 16.7557C465.774 16.4242 464.614 16.2585 463.407 16.2585C461.205 16.2585 459.211 16.8149 457.423 17.9276C455.648 19.0402 454.233 20.6797 453.18 22.8459C452.138 25.0121 451.617 27.6695 451.617 30.8182C451.617 33.9669 452.138 36.6243 453.18 38.7905C454.233 40.9567 455.648 42.5961 457.423 43.7088C459.211 44.8215 461.205 45.3778 463.407 45.3778C464.614 45.3778 465.774 45.2121 466.887 44.8807C468 44.5492 469.012 44.058 469.923 43.407C470.847 42.7441 471.628 41.9332 472.267 40.9744C472.918 40.0038 473.374 38.8911 473.634 37.6364H478.038C477.706 39.4948 477.102 41.1579 476.226 42.6257C475.351 44.0935 474.262 45.3423 472.959 46.3722C471.657 47.3902 470.195 48.1655 468.574 48.6982C466.964 49.2308 465.242 49.4972 463.407 49.4972C460.306 49.4972 457.548 48.7396 455.133 47.2244C452.718 45.7093 450.818 43.5549 449.433 40.7614C448.048 37.9678 447.356 34.6534 447.356 30.8182C447.356 26.983 448.048 23.6686 449.433 20.875C450.818 18.0814 452.718 15.9271 455.133 14.4119C457.548 12.8968 460.306 12.1392 463.407 12.1392C465.242 12.1392 466.964 12.4055 468.574 12.9382C470.195 13.4709 471.657 14.2521 472.959 15.282C474.262 16.3 475.351 17.5428 476.226 19.0107C477.102 20.4666 477.706 22.1297 478.038 24ZM483.165 16.5426V12.6364H510.437V16.5426H499.003V49H494.599V16.5426H483.165ZM514.477 49H509.86L523.212 12.6364H527.758L541.11 49H536.494L525.627 18.3892H525.343L514.477 49ZM516.181 34.7955H534.789V38.7017H516.181V34.7955ZM546.774 49V12.6364H559.487C562.02 12.6364 564.11 13.0743 565.755 13.9503C567.4 14.8144 568.626 15.9803 569.431 17.4482C570.235 18.9041 570.638 20.5199 570.638 22.2955C570.638 23.858 570.36 25.1482 569.803 26.1662C569.259 27.1842 568.537 27.9891 567.637 28.581C566.749 29.1728 565.785 29.6108 564.743 29.8949V30.25C565.856 30.321 566.974 30.7116 568.099 31.4219C569.223 32.1321 570.164 33.1501 570.922 34.4759C571.68 35.8016 572.058 37.4233 572.058 39.3409C572.058 41.1638 571.644 42.8033 570.815 44.2592C569.987 45.7152 568.679 46.8693 566.891 47.7216C565.104 48.5739 562.778 49 559.913 49H546.774ZM551.178 45.0938H559.913C562.79 45.0938 564.832 44.5374 566.039 43.4247C567.258 42.3002 567.868 40.9389 567.868 39.3409C567.868 38.1098 567.554 36.9735 566.927 35.9318C566.3 34.8783 565.406 34.0379 564.246 33.4105C563.086 32.7713 561.713 32.4517 560.127 32.4517H551.178V45.0938ZM551.178 28.6165H559.345C560.671 28.6165 561.867 28.3561 562.932 27.8352C564.009 27.3144 564.861 26.5805 565.489 25.6335C566.128 24.6866 566.448 23.5739 566.448 22.2955C566.448 20.6974 565.891 19.3421 564.779 18.2294C563.666 17.1049 561.902 16.5426 559.487 16.5426H551.178V28.6165ZM579.294 49V12.6364H583.697V28.8295H603.086V12.6364H607.49V49H603.086V32.7358H583.697V49H579.294ZM617.797 49H613.181L626.533 12.6364H631.078L644.431 49H639.814L628.948 18.3892H628.663L617.797 49ZM619.502 34.7955H638.109V38.7017H619.502V34.7955ZM664.157 49V12.6364H686.103V16.5426H668.56V27.9062H677.793C680.398 27.9062 682.593 28.3324 684.381 29.1847C686.18 30.0369 687.541 31.2384 688.465 32.7891C689.4 34.3397 689.867 36.1686 689.867 38.2756C689.867 40.3826 689.4 42.241 688.465 43.8509C687.541 45.4607 686.18 46.7214 684.381 47.6328C682.593 48.5443 680.398 49 677.793 49H664.157ZM668.56 45.1648H677.793C679.451 45.1648 680.853 44.8333 682.002 44.1705C683.162 43.4957 684.038 42.6316 684.629 41.5781C685.233 40.5128 685.535 39.3883 685.535 38.2045C685.535 36.4645 684.866 34.9671 683.529 33.7124C682.191 32.4458 680.279 31.8125 677.793 31.8125H668.56V45.1648ZM698.608 49H693.991L707.343 12.6364H711.889L725.241 49H720.625L709.758 18.3892H709.474L698.608 49ZM700.312 34.7955H718.92V38.7017H700.312V34.7955ZM742.553 49.4972C740.209 49.4972 738.12 49.0947 736.285 48.2898C734.462 47.4848 733.012 46.3662 731.935 44.9339C730.87 43.4898 730.29 41.8149 730.195 39.9091H734.669C734.764 41.081 735.166 42.093 735.877 42.9453C736.587 43.7857 737.516 44.4368 738.664 44.8984C739.813 45.3601 741.085 45.5909 742.482 45.5909C744.044 45.5909 745.429 45.3187 746.637 44.7741C747.844 44.2296 748.791 43.4721 749.478 42.5014C750.164 41.5308 750.507 40.4062 750.507 39.1278C750.507 37.7902 750.176 36.6125 749.513 35.5945C748.85 34.5646 747.88 33.7597 746.601 33.1797C745.323 32.5997 743.76 32.3097 741.914 32.3097H739.002V28.4034H741.914C743.358 28.4034 744.624 28.143 745.713 27.6222C746.814 27.1013 747.672 26.3674 748.288 25.4205C748.915 24.4735 749.229 23.3608 749.229 22.0824C749.229 20.8513 748.957 19.7801 748.412 18.8686C747.868 17.9571 747.098 17.2469 746.104 16.7379C745.122 16.2289 743.961 15.9744 742.624 15.9744C741.369 15.9744 740.185 16.2053 739.073 16.6669C737.972 17.1167 737.072 17.7737 736.374 18.6378C735.675 19.4901 735.297 20.5199 735.238 21.7273H730.976C731.047 19.8215 731.621 18.1525 732.698 16.7202C733.776 15.276 735.184 14.1515 736.924 13.3466C738.676 12.5417 740.6 12.1392 742.695 12.1392C744.944 12.1392 746.873 12.5949 748.483 13.5064C750.093 14.406 751.33 15.5956 752.194 17.0753C753.058 18.5549 753.49 20.1529 753.49 21.8693C753.49 23.9171 752.952 25.6631 751.875 27.1072C750.809 28.5514 749.359 29.5516 747.524 30.108V30.392C749.821 30.7708 751.614 31.7474 752.904 33.3217C754.195 34.8842 754.84 36.8196 754.84 39.1278C754.84 41.1046 754.301 42.8802 753.224 44.4545C752.159 46.017 750.703 47.2481 748.856 48.1477C747.01 49.0473 744.908 49.4972 742.553 49.4972ZM764.233 49H759.616L772.968 12.6364H777.514L790.866 49H786.25L775.383 18.3892H775.099L764.233 49ZM765.937 34.7955H784.545V38.7017H765.937V34.7955Z"/>
</mask>
<path d="M379.684 49V12.6364H384.088V28.8295H403.477V12.6364H407.88V49H403.477V32.7358H384.088V49H379.684ZM418.188 49H413.571L426.923 12.6364H431.469L444.821 49H440.205L429.338 18.3892H429.054L418.188 49ZM419.892 34.7955H438.5V38.7017H419.892V34.7955ZM478.038 24H473.634C473.374 22.7334 472.918 21.6207 472.267 20.6619C471.628 19.7031 470.847 18.8982 469.923 18.2472C469.012 17.5843 468 17.0871 466.887 16.7557C465.774 16.4242 464.614 16.2585 463.407 16.2585C461.205 16.2585 459.211 16.8149 457.423 17.9276C455.648 19.0402 454.233 20.6797 453.18 22.8459C452.138 25.0121 451.617 27.6695 451.617 30.8182C451.617 33.9669 452.138 36.6243 453.18 38.7905C454.233 40.9567 455.648 42.5961 457.423 43.7088C459.211 44.8215 461.205 45.3778 463.407 45.3778C464.614 45.3778 465.774 45.2121 466.887 44.8807C468 44.5492 469.012 44.058 469.923 43.407C470.847 42.7441 471.628 41.9332 472.267 40.9744C472.918 40.0038 473.374 38.8911 473.634 37.6364H478.038C477.706 39.4948 477.102 41.1579 476.226 42.6257C475.351 44.0935 474.262 45.3423 472.959 46.3722C471.657 47.3902 470.195 48.1655 468.574 48.6982C466.964 49.2308 465.242 49.4972 463.407 49.4972C460.306 49.4972 457.548 48.7396 455.133 47.2244C452.718 45.7093 450.818 43.5549 449.433 40.7614C448.048 37.9678 447.356 34.6534 447.356 30.8182C447.356 26.983 448.048 23.6686 449.433 20.875C450.818 18.0814 452.718 15.9271 455.133 14.4119C457.548 12.8968 460.306 12.1392 463.407 12.1392C465.242 12.1392 466.964 12.4055 468.574 12.9382C470.195 13.4709 471.657 14.2521 472.959 15.282C474.262 16.3 475.351 17.5428 476.226 19.0107C477.102 20.4666 477.706 22.1297 478.038 24ZM483.165 16.5426V12.6364H510.437V16.5426H499.003V49H494.599V16.5426H483.165ZM514.477 49H509.86L523.212 12.6364H527.758L541.11 49H536.494L525.627 18.3892H525.343L514.477 49ZM516.181 34.7955H534.789V38.7017H516.181V34.7955ZM546.774 49V12.6364H559.487C562.02 12.6364 564.11 13.0743 565.755 13.9503C567.4 14.8144 568.626 15.9803 569.431 17.4482C570.235 18.9041 570.638 20.5199 570.638 22.2955C570.638 23.858 570.36 25.1482 569.803 26.1662C569.259 27.1842 568.537 27.9891 567.637 28.581C566.749 29.1728 565.785 29.6108 564.743 29.8949V30.25C565.856 30.321 566.974 30.7116 568.099 31.4219C569.223 32.1321 570.164 33.1501 570.922 34.4759C571.68 35.8016 572.058 37.4233 572.058 39.3409C572.058 41.1638 571.644 42.8033 570.815 44.2592C569.987 45.7152 568.679 46.8693 566.891 47.7216C565.104 48.5739 562.778 49 559.913 49H546.774ZM551.178 45.0938H559.913C562.79 45.0938 564.832 44.5374 566.039 43.4247C567.258 42.3002 567.868 40.9389 567.868 39.3409C567.868 38.1098 567.554 36.9735 566.927 35.9318C566.3 34.8783 565.406 34.0379 564.246 33.4105C563.086 32.7713 561.713 32.4517 560.127 32.4517H551.178V45.0938ZM551.178 28.6165H559.345C560.671 28.6165 561.867 28.3561 562.932 27.8352C564.009 27.3144 564.861 26.5805 565.489 25.6335C566.128 24.6866 566.448 23.5739 566.448 22.2955C566.448 20.6974 565.891 19.3421 564.779 18.2294C563.666 17.1049 561.902 16.5426 559.487 16.5426H551.178V28.6165ZM579.294 49V12.6364H583.697V28.8295H603.086V12.6364H607.49V49H603.086V32.7358H583.697V49H579.294ZM617.797 49H613.181L626.533 12.6364H631.078L644.431 49H639.814L628.948 18.3892H628.663L617.797 49ZM619.502 34.7955H638.109V38.7017H619.502V34.7955ZM664.157 49V12.6364H686.103V16.5426H668.56V27.9062H677.793C680.398 27.9062 682.593 28.3324 684.381 29.1847C686.18 30.0369 687.541 31.2384 688.465 32.7891C689.4 34.3397 689.867 36.1686 689.867 38.2756C689.867 40.3826 689.4 42.241 688.465 43.8509C687.541 45.4607 686.18 46.7214 684.381 47.6328C682.593 48.5443 680.398 49 677.793 49H664.157ZM668.56 45.1648H677.793C679.451 45.1648 680.853 44.8333 682.002 44.1705C683.162 43.4957 684.038 42.6316 684.629 41.5781C685.233 40.5128 685.535 39.3883 685.535 38.2045C685.535 36.4645 684.866 34.9671 683.529 33.7124C682.191 32.4458 680.279 31.8125 677.793 31.8125H668.56V45.1648ZM698.608 49H693.991L707.343 12.6364H711.889L725.241 49H720.625L709.758 18.3892H709.474L698.608 49ZM700.312 34.7955H718.92V38.7017H700.312V34.7955ZM742.553 49.4972C740.209 49.4972 738.12 49.0947 736.285 48.2898C734.462 47.4848 733.012 46.3662 731.935 44.9339C730.87 43.4898 730.29 41.8149 730.195 39.9091H734.669C734.764 41.081 735.166 42.093 735.877 42.9453C736.587 43.7857 737.516 44.4368 738.664 44.8984C739.813 45.3601 741.085 45.5909 742.482 45.5909C744.044 45.5909 745.429 45.3187 746.637 44.7741C747.844 44.2296 748.791 43.4721 749.478 42.5014C750.164 41.5308 750.507 40.4062 750.507 39.1278C750.507 37.7902 750.176 36.6125 749.513 35.5945C748.85 34.5646 747.88 33.7597 746.601 33.1797C745.323 32.5997 743.76 32.3097 741.914 32.3097H739.002V28.4034H741.914C743.358 28.4034 744.624 28.143 745.713 27.6222C746.814 27.1013 747.672 26.3674 748.288 25.4205C748.915 24.4735 749.229 23.3608 749.229 22.0824C749.229 20.8513 748.957 19.7801 748.412 18.8686C747.868 17.9571 747.098 17.2469 746.104 16.7379C745.122 16.2289 743.961 15.9744 742.624 15.9744C741.369 15.9744 740.185 16.2053 739.073 16.6669C737.972 17.1167 737.072 17.7737 736.374 18.6378C735.675 19.4901 735.297 20.5199 735.238 21.7273H730.976C731.047 19.8215 731.621 18.1525 732.698 16.7202C733.776 15.276 735.184 14.1515 736.924 13.3466C738.676 12.5417 740.6 12.1392 742.695 12.1392C744.944 12.1392 746.873 12.5949 748.483 13.5064C750.093 14.406 751.33 15.5956 752.194 17.0753C753.058 18.5549 753.49 20.1529 753.49 21.8693C753.49 23.9171 752.952 25.6631 751.875 27.1072C750.809 28.5514 749.359 29.5516 747.524 30.108V30.392C749.821 30.7708 751.614 31.7474 752.904 33.3217C754.195 34.8842 754.84 36.8196 754.84 39.1278C754.84 41.1046 754.301 42.8802 753.224 44.4545C752.159 46.017 750.703 47.2481 748.856 48.1477C747.01 49.0473 744.908 49.4972 742.553 49.4972ZM764.233 49H759.616L772.968 12.6364H777.514L790.866 49H786.25L775.383 18.3892H775.099L764.233 49ZM765.937 34.7955H784.545V38.7017H765.937V34.7955Z" fill="#21422B"/>
<path d="M379.684 49H378.684V50H379.684V49ZM379.684 12.6364V11.6364H378.684V12.6364H379.684ZM384.088 12.6364H385.088V11.6364H384.088V12.6364ZM384.088 28.8295H383.088V29.8295H384.088V28.8295ZM403.477 28.8295V29.8295H404.477V28.8295H403.477ZM403.477 12.6364V11.6364H402.477V12.6364H403.477ZM407.88 12.6364H408.88V11.6364H407.88V12.6364ZM407.88 49V50H408.88V49H407.88ZM403.477 49H402.477V50H403.477V49ZM403.477 32.7358H404.477V31.7358H403.477V32.7358ZM384.088 32.7358V31.7358H383.088V32.7358H384.088ZM384.088 49V50H385.088V49H384.088ZM379.684 49H380.684V12.6364H379.684H378.684V49H379.684ZM379.684 12.6364V13.6364H384.088V12.6364V11.6364H379.684V12.6364ZM384.088 12.6364H383.088V28.8295H384.088H385.088V12.6364H384.088ZM384.088 28.8295V29.8295H403.477V28.8295V27.8295H384.088V28.8295ZM403.477 28.8295H404.477V12.6364H403.477H402.477V28.8295H403.477ZM403.477 12.6364V13.6364H407.88V12.6364V11.6364H403.477V12.6364ZM407.88 12.6364H406.88V49H407.88H408.88V12.6364H407.88ZM407.88 49V48H403.477V49V50H407.88V49ZM403.477 49H404.477V32.7358H403.477H402.477V49H403.477ZM403.477 32.7358V31.7358H384.088V32.7358V33.7358H403.477V32.7358ZM384.088 32.7358H383.088V49H384.088H385.088V32.7358H384.088ZM384.088 49V48H379.684V49V50H384.088V49ZM418.188 49V50H418.894L419.13 49.3345L418.188 49ZM413.571 49L412.632 48.6553L412.139 50H413.571V49ZM426.923 12.6364V11.6364H426.225L425.985 12.2917L426.923 12.6364ZM431.469 12.6364L432.408 12.2917L432.167 11.6364H431.469V12.6364ZM444.821 49V50H446.254L445.76 48.6553L444.821 49ZM440.205 49L439.262 49.3345L439.499 50H440.205V49ZM429.338 18.3892L430.281 18.0547L430.044 17.3892H429.338V18.3892ZM429.054 18.3892V17.3892H428.348L428.112 18.0547L429.054 18.3892ZM419.892 34.7955V33.7955H418.892V34.7955H419.892ZM438.5 34.7955H439.5V33.7955H438.5V34.7955ZM438.5 38.7017V39.7017H439.5V38.7017H438.5ZM419.892 38.7017H418.892V39.7017H419.892V38.7017ZM418.188 49V48H413.571V49V50H418.188V49ZM413.571 49L414.51 49.3447L427.862 12.981L426.923 12.6364L425.985 12.2917L412.632 48.6553L413.571 49ZM426.923 12.6364V13.6364H431.469V12.6364V11.6364H426.923V12.6364ZM431.469 12.6364L430.53 12.981L443.882 49.3447L444.821 49L445.76 48.6553L432.408 12.2917L431.469 12.6364ZM444.821 49V48H440.205V49V50H444.821V49ZM440.205 49L441.147 48.6655L430.281 18.0547L429.338 18.3892L428.396 18.7237L439.262 49.3345L440.205 49ZM429.338 18.3892V17.3892H429.054V18.3892V19.3892H429.338V18.3892ZM429.054 18.3892L428.112 18.0547L417.245 48.6655L418.188 49L419.13 49.3345L429.996 18.7237L429.054 18.3892ZM419.892 34.7955V35.7955H438.5V34.7955V33.7955H419.892V34.7955ZM438.5 34.7955H437.5V38.7017H438.5H439.5V34.7955H438.5ZM438.5 38.7017V37.7017H419.892V38.7017V39.7017H438.5V38.7017ZM419.892 38.7017H420.892V34.7955H419.892H418.892V38.7017H419.892ZM478.038 24V25H479.23L479.022 23.8255L478.038 24ZM473.634 24L472.655 24.2014L472.819 25H473.634V24ZM472.267 20.6619L471.435 21.2167L471.44 21.2237L472.267 20.6619ZM469.923 18.2472L469.335 19.0559L469.341 19.0602L469.347 19.0644L469.923 18.2472ZM466.887 16.7557L466.602 17.7141V17.7141L466.887 16.7557ZM457.423 17.9276L456.895 17.0786L456.892 17.0802L457.423 17.9276ZM453.18 22.8459L452.28 22.4085L452.278 22.4125L453.18 22.8459ZM453.18 38.7905L452.278 39.2239L452.28 39.2278L453.18 38.7905ZM457.423 43.7088L456.892 44.5562L456.895 44.5578L457.423 43.7088ZM466.887 44.8807L466.602 43.9223V43.9223L466.887 44.8807ZM469.923 43.407L470.504 44.2207L470.506 44.2193L469.923 43.407ZM472.267 40.9744L471.436 40.4174L471.435 40.4197L472.267 40.9744ZM473.634 37.6364V36.6364H472.82L472.655 37.4331L473.634 37.6364ZM478.038 37.6364L479.022 37.8119L479.232 36.6364H478.038V37.6364ZM476.226 42.6257L475.368 42.1133V42.1133L476.226 42.6257ZM472.959 46.3722L473.575 47.16L473.58 47.1565L472.959 46.3722ZM468.574 48.6982L468.262 47.7481L468.26 47.7488L468.574 48.6982ZM455.133 47.2244L454.601 48.0715V48.0715L455.133 47.2244ZM449.433 40.7614L450.329 40.3172V40.3172L449.433 40.7614ZM468.574 12.9382L468.26 13.8876L468.262 13.8883L468.574 12.9382ZM472.959 15.282L472.339 16.0663L472.344 16.0698L472.959 15.282ZM476.226 19.0107L475.368 19.5231L475.37 19.5262L476.226 19.0107ZM478.038 24V23H473.634V24V25H478.038V24ZM473.634 24L474.614 23.7986C474.33 22.418 473.827 21.1798 473.094 20.1002L472.267 20.6619L471.44 21.2237C472.009 22.0616 472.418 23.0489 472.655 24.2014L473.634 24ZM472.267 20.6619L473.099 20.1072C472.393 19.048 471.526 18.1534 470.5 17.4299L469.923 18.2472L469.347 19.0644C470.168 19.643 470.863 20.3583 471.435 21.2166L472.267 20.6619ZM469.923 18.2472L470.511 17.4384C469.505 16.7069 468.391 16.1601 467.172 15.7973L466.887 16.7557L466.602 17.7141C467.609 18.0141 468.518 18.4617 469.335 19.0559L469.923 18.2472ZM466.887 16.7557L467.172 15.7973C465.964 15.4372 464.707 15.2585 463.407 15.2585V16.2585V17.2585C464.521 17.2585 465.585 17.4113 466.602 17.7141L466.887 16.7557ZM463.407 16.2585V15.2585C461.027 15.2585 458.848 15.8626 456.895 17.0786L457.423 17.9276L457.952 18.7765C459.573 17.7672 461.383 17.2585 463.407 17.2585V16.2585ZM457.423 17.9276L456.892 17.0802C454.935 18.3065 453.403 20.0996 452.28 22.4085L453.18 22.8459L454.079 23.2832C455.063 21.2598 456.36 19.774 457.954 18.7749L457.423 17.9276ZM453.18 22.8459L452.278 22.4125C451.155 24.7491 450.617 27.5641 450.617 30.8182H451.617H452.617C452.617 27.7749 453.121 25.2751 454.081 23.2793L453.18 22.8459ZM451.617 30.8182H450.617C450.617 34.0723 451.155 36.8873 452.278 39.2239L453.18 38.7905L454.081 38.3571C453.121 36.3613 452.617 33.8614 452.617 30.8182H451.617ZM453.18 38.7905L452.28 39.2278C453.403 41.5368 454.935 43.3298 456.892 44.5562L457.423 43.7088L457.954 42.8614C456.36 41.8624 455.063 40.3766 454.079 38.3531L453.18 38.7905ZM457.423 43.7088L456.895 44.5578C458.848 45.7738 461.027 46.3778 463.407 46.3778V45.3778V44.3778C461.383 44.3778 459.573 43.8692 457.952 42.8599L457.423 43.7088ZM463.407 45.3778V46.3778C464.707 46.3778 465.964 46.1992 467.172 45.8391L466.887 44.8807L466.602 43.9223C465.585 44.2251 464.521 44.3778 463.407 44.3778V45.3778ZM466.887 44.8807L467.172 45.8391C468.387 45.4772 469.5 44.9383 470.504 44.2207L469.923 43.407L469.342 42.5932C468.524 43.1777 467.612 43.6212 466.602 43.9223L466.887 44.8807ZM469.923 43.407L470.506 44.2193C471.529 43.4852 472.394 42.5867 473.099 41.5291L472.267 40.9744L471.435 40.4197C470.862 41.2798 470.164 42.0029 469.34 42.5946L469.923 43.407ZM472.267 40.9744L473.097 41.5315C473.827 40.4437 474.329 39.2085 474.613 37.8396L473.634 37.6364L472.655 37.4331C472.418 38.5737 472.009 39.5639 471.436 40.4174L472.267 40.9744ZM473.634 37.6364V38.6364H478.038V37.6364V36.6364H473.634V37.6364ZM478.038 37.6364L477.053 37.4608C476.741 39.2126 476.176 40.7595 475.368 42.1133L476.226 42.6257L477.085 43.1382C478.029 41.5563 478.672 39.7769 479.022 37.8119L478.038 37.6364ZM476.226 42.6257L475.368 42.1133C474.552 43.4798 473.543 44.6356 472.339 45.5878L472.959 46.3722L473.58 47.1565C474.98 46.049 476.149 44.7072 477.085 43.1382L476.226 42.6257ZM472.959 46.3722L472.344 45.5844C471.136 46.5288 469.777 47.2503 468.262 47.7481L468.574 48.6982L468.886 49.6482C470.614 49.0806 472.179 48.2515 473.575 47.16L472.959 46.3722ZM468.574 48.6982L468.26 47.7488C466.759 48.2453 465.144 48.4972 463.407 48.4972V49.4972V50.4972C465.34 50.4972 467.169 50.2164 468.888 49.6475L468.574 48.6982ZM463.407 49.4972V48.4972C460.476 48.4972 457.906 47.7838 455.664 46.3774L455.133 47.2244L454.601 48.0715C457.189 49.6953 460.135 50.4972 463.407 50.4972V49.4972ZM455.133 47.2244L455.664 46.3774C453.42 44.9694 451.64 42.9614 450.329 40.3172L449.433 40.7614L448.537 41.2055C449.996 44.1484 452.016 46.4492 454.601 48.0715L455.133 47.2244ZM449.433 40.7614L450.329 40.3172C449.027 37.6898 448.356 34.5341 448.356 30.8182H447.356H446.356C446.356 34.7727 447.07 38.2458 448.537 41.2055L449.433 40.7614ZM447.356 30.8182H448.356C448.356 27.1023 449.027 23.9466 450.329 21.3192L449.433 20.875L448.537 20.4308C447.07 23.3906 446.356 26.8636 446.356 30.8182H447.356ZM449.433 20.875L450.329 21.3192C451.64 18.6749 453.42 16.667 455.664 15.259L455.133 14.4119L454.601 13.5649C452.016 15.1872 449.996 17.4879 448.537 20.4308L449.433 20.875ZM455.133 14.4119L455.664 15.259C457.906 13.8525 460.476 13.1392 463.407 13.1392V12.1392V11.1392C460.135 11.1392 457.189 11.941 454.601 13.5649L455.133 14.4119ZM463.407 12.1392V13.1392C465.144 13.1392 466.759 13.3911 468.26 13.8876L468.574 12.9382L468.888 11.9888C467.169 11.42 465.34 11.1392 463.407 11.1392V12.1392ZM468.574 12.9382L468.262 13.8883C469.775 14.3853 471.132 15.1115 472.339 16.0663L472.959 15.282L473.58 14.4976C472.183 13.3928 470.616 12.5565 468.886 11.9881L468.574 12.9382ZM472.959 15.282L472.344 16.0698C473.545 17.0091 474.553 18.1576 475.368 19.5231L476.226 19.0107L477.085 18.4982C476.148 16.9281 474.978 15.5908 473.575 14.4942L472.959 15.282ZM476.226 19.0107L475.37 19.5262C476.175 20.8656 476.74 22.4106 477.053 24.1745L478.038 24L479.022 23.8255C478.672 21.8488 478.029 20.0676 477.083 18.4951L476.226 19.0107ZM483.165 16.5426H482.165V17.5426H483.165V16.5426ZM483.165 12.6364V11.6364H482.165V12.6364H483.165ZM510.437 12.6364H511.437V11.6364H510.437V12.6364ZM510.437 16.5426V17.5426H511.437V16.5426H510.437ZM499.003 16.5426V15.5426H498.003V16.5426H499.003ZM499.003 49V50H500.003V49H499.003ZM494.599 49H493.599V50H494.599V49ZM494.599 16.5426H495.599V15.5426H494.599V16.5426ZM483.165 16.5426H484.165V12.6364H483.165H482.165V16.5426H483.165ZM483.165 12.6364V13.6364H510.437V12.6364V11.6364H483.165V12.6364ZM510.437 12.6364H509.437V16.5426H510.437H511.437V12.6364H510.437ZM510.437 16.5426V15.5426H499.003V16.5426V17.5426H510.437V16.5426ZM499.003 16.5426H498.003V49H499.003H500.003V16.5426H499.003ZM499.003 49V48H494.599V49V50H499.003V49ZM494.599 49H495.599V16.5426H494.599H493.599V49H494.599ZM494.599 16.5426V15.5426H483.165V16.5426V17.5426H494.599V16.5426ZM514.477 49V50H515.183L515.419 49.3345L514.477 49ZM509.86 49L508.921 48.6553L508.428 50H509.86V49ZM523.212 12.6364V11.6364H522.514L522.274 12.2917L523.212 12.6364ZM527.758 12.6364L528.697 12.2917L528.456 11.6364H527.758V12.6364ZM541.11 49V50H542.543L542.049 48.6553L541.11 49ZM536.494 49L535.551 49.3345L535.788 50H536.494V49ZM525.627 18.3892L526.57 18.0547L526.333 17.3892H525.627V18.3892ZM525.343 18.3892V17.3892H524.637L524.401 18.0547L525.343 18.3892ZM516.181 34.7955V33.7955H515.181V34.7955H516.181ZM534.789 34.7955H535.789V33.7955H534.789V34.7955ZM534.789 38.7017V39.7017H535.789V38.7017H534.789ZM516.181 38.7017H515.181V39.7017H516.181V38.7017ZM514.477 49V48H509.86V49V50H514.477V49ZM509.86 49L510.799 49.3447L524.151 12.981L523.212 12.6364L522.274 12.2917L508.921 48.6553L509.86 49ZM523.212 12.6364V13.6364H527.758V12.6364V11.6364H523.212V12.6364ZM527.758 12.6364L526.819 12.981L540.171 49.3447L541.11 49L542.049 48.6553L528.697 12.2917L527.758 12.6364ZM541.11 49V48H536.494V49V50H541.11V49ZM536.494 49L537.436 48.6655L526.57 18.0547L525.627 18.3892L524.685 18.7237L535.551 49.3345L536.494 49ZM525.627 18.3892V17.3892H525.343V18.3892V19.3892H525.627V18.3892ZM525.343 18.3892L524.401 18.0547L513.534 48.6655L514.477 49L515.419 49.3345L526.286 18.7237L525.343 18.3892ZM516.181 34.7955V35.7955H534.789V34.7955V33.7955H516.181V34.7955ZM534.789 34.7955H533.789V38.7017H534.789H535.789V34.7955H534.789ZM534.789 38.7017V37.7017H516.181V38.7017V39.7017H534.789V38.7017ZM516.181 38.7017H517.181V34.7955H516.181H515.181V38.7017H516.181ZM546.774 49H545.774V50H546.774V49ZM546.774 12.6364V11.6364H545.774V12.6364H546.774ZM565.755 13.9503L565.285 14.833L565.29 14.8356L565.755 13.9503ZM569.431 17.4482L568.554 17.929L568.555 17.932L569.431 17.4482ZM569.803 26.1662L568.926 25.6866L568.922 25.6945L569.803 26.1662ZM567.637 28.581L567.088 27.7455L567.082 27.7489L567.637 28.581ZM564.743 29.8949L564.48 28.9301L563.743 29.1311V29.8949H564.743ZM564.743 30.25H563.743V31.1882L564.679 31.248L564.743 30.25ZM568.099 31.4219L567.565 32.2674V32.2674L568.099 31.4219ZM570.815 44.2592L571.685 44.7538V44.7538L570.815 44.2592ZM566.891 47.7216L566.461 46.819V46.819L566.891 47.7216ZM551.178 45.0938H550.178V46.0938H551.178V45.0938ZM566.039 43.4247L566.717 44.1601L566.717 44.1598L566.039 43.4247ZM566.927 35.9318L566.068 36.4435L566.07 36.4477L566.927 35.9318ZM564.246 33.4105L563.763 34.2864L563.77 34.2901L564.246 33.4105ZM551.178 32.4517V31.4517H550.178V32.4517H551.178ZM551.178 28.6165H550.178V29.6165H551.178V28.6165ZM562.932 27.8352L562.497 26.9349L562.493 26.9368L562.932 27.8352ZM565.489 25.6335L564.66 25.074L564.655 25.0812L565.489 25.6335ZM564.779 18.2294L564.068 18.9328L564.071 18.9365L564.779 18.2294ZM551.178 16.5426V15.5426H550.178V16.5426H551.178ZM546.774 49H547.774V12.6364H546.774H545.774V49H546.774ZM546.774 12.6364V13.6364H559.487V12.6364V11.6364H546.774V12.6364ZM559.487 12.6364V13.6364C561.913 13.6364 563.827 14.0567 565.285 14.833L565.755 13.9503L566.225 13.0676C564.392 12.092 562.128 11.6364 559.487 11.6364V12.6364ZM565.755 13.9503L565.29 14.8356C566.781 15.6188 567.854 16.6523 568.554 17.929L569.431 17.4482L570.307 16.9673C569.398 15.3084 568.02 14.01 566.22 13.065L565.755 13.9503ZM569.431 17.4482L568.555 17.932C569.273 19.2299 569.638 20.6774 569.638 22.2955H570.638H571.638C571.638 20.3624 571.198 18.5784 570.306 16.9643L569.431 17.4482ZM570.638 22.2955H569.638C569.638 23.7461 569.379 24.8579 568.926 25.6866L569.803 26.1662L570.681 26.6458C571.341 25.4385 571.638 23.9698 571.638 22.2955H570.638ZM569.803 26.1662L568.922 25.6945C568.45 26.5764 567.838 27.2519 567.088 27.7455L567.637 28.581L568.187 29.4164C569.236 28.7263 570.068 27.792 570.685 26.6378L569.803 26.1662ZM567.637 28.581L567.082 27.7489C566.285 28.2804 565.419 28.674 564.48 28.9301L564.743 29.8949L565.006 30.8596C566.15 30.5476 567.214 30.0652 568.192 29.413L567.637 28.581ZM564.743 29.8949H563.743V30.25H564.743H565.743V29.8949H564.743ZM564.743 30.25L564.679 31.248C565.595 31.3064 566.555 31.6293 567.565 32.2674L568.099 31.4219L568.633 30.5764C567.394 29.794 566.116 29.3356 564.807 29.252L564.743 30.25ZM568.099 31.4219L567.565 32.2674C568.532 32.8781 569.365 33.7671 570.054 34.972L570.922 34.4759L571.79 33.9797C570.964 32.5331 569.915 31.3861 568.633 30.5764L568.099 31.4219ZM570.922 34.4759L570.054 34.972C570.706 36.1126 571.058 37.5534 571.058 39.3409H572.058H573.058C573.058 37.2932 572.654 35.4906 571.79 33.9797L570.922 34.4759ZM572.058 39.3409H571.058C571.058 41.0061 570.682 42.4725 569.946 43.7646L570.815 44.2592L571.685 44.7538C572.606 43.134 573.058 41.3215 573.058 39.3409H572.058ZM570.815 44.2592L569.946 43.7646C569.236 45.0125 568.098 46.0382 566.461 46.819L566.891 47.7216L567.322 48.6242C569.259 47.7004 570.738 46.4179 571.685 44.7538L570.815 44.2592ZM566.891 47.7216L566.461 46.819C564.854 47.5851 562.691 48 559.913 48V49V50C562.865 50 565.354 49.5627 567.322 48.6242L566.891 47.7216ZM559.913 49V48H546.774V49V50H559.913V49ZM551.178 45.0938V46.0938H559.913V45.0938V44.0938H551.178V45.0938ZM559.913 45.0938V46.0938C562.868 46.0938 565.228 45.5318 566.717 44.1601L566.039 43.4247L565.361 42.6894C564.435 43.543 562.711 44.0938 559.913 44.0938V45.0938ZM566.039 43.4247L566.717 44.1598C568.133 42.8541 568.868 41.2299 568.868 39.3409H567.868H566.868C566.868 40.6479 566.384 41.7463 565.361 42.6896L566.039 43.4247ZM567.868 39.3409H568.868C568.868 37.9304 568.506 36.6153 567.784 35.4159L566.927 35.9318L566.07 36.4477C566.603 37.3316 566.868 38.2893 566.868 39.3409H567.868ZM566.927 35.9318L567.786 35.4202C567.06 34.2 566.028 33.2374 564.722 32.5309L564.246 33.4105L563.77 34.2901C564.784 34.8384 565.54 35.5567 566.068 36.4435L566.927 35.9318ZM564.246 33.4105L564.728 32.5347C563.394 31.7993 561.848 31.4517 560.127 31.4517V32.4517V33.4517C561.577 33.4517 562.778 33.7433 563.763 34.2864L564.246 33.4105ZM560.127 32.4517V31.4517H551.178V32.4517V33.4517H560.127V32.4517ZM551.178 32.4517H550.178V45.0938H551.178H552.178V32.4517H551.178ZM551.178 28.6165V29.6165H559.345V28.6165V27.6165H551.178V28.6165ZM559.345 28.6165V29.6165C560.805 29.6165 562.154 29.3288 563.371 28.7336L562.932 27.8352L562.493 26.9368C561.58 27.3833 560.537 27.6165 559.345 27.6165V28.6165ZM562.932 27.8352L563.367 28.7355C564.597 28.1409 565.591 27.2905 566.322 26.1858L565.489 25.6335L564.655 25.0812C564.132 25.8705 563.421 26.4879 562.497 26.9349L562.932 27.8352ZM565.489 25.6335L566.318 26.193C567.081 25.0615 567.448 23.7486 567.448 22.2955H566.448H565.448C565.448 23.3991 565.175 24.3116 564.66 25.074L565.489 25.6335ZM566.448 22.2955H567.448C567.448 20.4368 566.789 18.8258 565.486 17.5223L564.779 18.2294L564.071 18.9365C564.993 19.8584 565.448 20.958 565.448 22.2955H566.448ZM564.779 18.2294L565.489 17.526C564.11 16.132 562.031 15.5426 559.487 15.5426V16.5426V17.5426C561.773 17.5426 563.222 18.0778 564.068 18.9328L564.779 18.2294ZM559.487 16.5426V15.5426H551.178V16.5426V17.5426H559.487V16.5426ZM551.178 16.5426H550.178V28.6165H551.178H552.178V16.5426H551.178ZM579.294 49H578.294V50H579.294V49ZM579.294 12.6364V11.6364H578.294V12.6364H579.294ZM583.697 12.6364H584.697V11.6364H583.697V12.6364ZM583.697 28.8295H582.697V29.8295H583.697V28.8295ZM603.086 28.8295V29.8295H604.086V28.8295H603.086ZM603.086 12.6364V11.6364H602.086V12.6364H603.086ZM607.49 12.6364H608.49V11.6364H607.49V12.6364ZM607.49 49V50H608.49V49H607.49ZM603.086 49H602.086V50H603.086V49ZM603.086 32.7358H604.086V31.7358H603.086V32.7358ZM583.697 32.7358V31.7358H582.697V32.7358H583.697ZM583.697 49V50H584.697V49H583.697ZM579.294 49H580.294V12.6364H579.294H578.294V49H579.294ZM579.294 12.6364V13.6364H583.697V12.6364V11.6364H579.294V12.6364ZM583.697 12.6364H582.697V28.8295H583.697H584.697V12.6364H583.697ZM583.697 28.8295V29.8295H603.086V28.8295V27.8295H583.697V28.8295ZM603.086 28.8295H604.086V12.6364H603.086H602.086V28.8295H603.086ZM603.086 12.6364V13.6364H607.49V12.6364V11.6364H603.086V12.6364ZM607.49 12.6364H606.49V49H607.49H608.49V12.6364H607.49ZM607.49 49V48H603.086V49V50H607.49V49ZM603.086 49H604.086V32.7358H603.086H602.086V49H603.086ZM603.086 32.7358V31.7358H583.697V32.7358V33.7358H603.086V32.7358ZM583.697 32.7358H582.697V49H583.697H584.697V32.7358H583.697ZM583.697 49V48H579.294V49V50H583.697V49ZM617.797 49V50H618.503L618.739 49.3345L617.797 49ZM613.181 49L612.242 48.6553L611.748 50H613.181V49ZM626.533 12.6364V11.6364H625.835L625.594 12.2917L626.533 12.6364ZM631.078 12.6364L632.017 12.2917L631.776 11.6364H631.078V12.6364ZM644.431 49V50H645.863L645.369 48.6553L644.431 49ZM639.814 49L638.872 49.3345L639.108 50H639.814V49ZM628.948 18.3892L629.89 18.0547L629.654 17.3892H628.948V18.3892ZM628.663 18.3892V17.3892H627.957L627.721 18.0547L628.663 18.3892ZM619.502 34.7955V33.7955H618.502V34.7955H619.502ZM638.109 34.7955H639.109V33.7955H638.109V34.7955ZM638.109 38.7017V39.7017H639.109V38.7017H638.109ZM619.502 38.7017H618.502V39.7017H619.502V38.7017ZM617.797 49V48H613.181V49V50H617.797V49ZM613.181 49L614.119 49.3447L627.471 12.981L626.533 12.6364L625.594 12.2917L612.242 48.6553L613.181 49ZM626.533 12.6364V13.6364H631.078V12.6364V11.6364H626.533V12.6364ZM631.078 12.6364L630.14 12.981L643.492 49.3447L644.431 49L645.369 48.6553L632.017 12.2917L631.078 12.6364ZM644.431 49V48H639.814V49V50H644.431V49ZM639.814 49L640.756 48.6655L629.89 18.0547L628.948 18.3892L628.005 18.7237L638.872 49.3345L639.814 49ZM628.948 18.3892V17.3892H628.663V18.3892V19.3892H628.948V18.3892ZM628.663 18.3892L627.721 18.0547L616.855 48.6655L617.797 49L618.739 49.3345L629.606 18.7237L628.663 18.3892ZM619.502 34.7955V35.7955H638.109V34.7955V33.7955H619.502V34.7955ZM638.109 34.7955H637.109V38.7017H638.109H639.109V34.7955H638.109ZM638.109 38.7017V37.7017H619.502V38.7017V39.7017H638.109V38.7017ZM619.502 38.7017H620.502V34.7955H619.502H618.502V38.7017H619.502ZM664.157 49H663.157V50H664.157V49ZM664.157 12.6364V11.6364H663.157V12.6364H664.157ZM686.103 12.6364H687.103V11.6364H686.103V12.6364ZM686.103 16.5426V17.5426H687.103V16.5426H686.103ZM668.56 16.5426V15.5426H667.56V16.5426H668.56ZM668.56 27.9062H667.56V28.9062H668.56V27.9062ZM684.381 29.1847L683.95 30.0873L683.953 30.0884L684.381 29.1847ZM688.465 32.7891L687.605 33.3007L687.608 33.3055L688.465 32.7891ZM688.465 43.8509L687.6 43.3486L687.597 43.3533L688.465 43.8509ZM684.381 47.6328L683.929 46.7407L683.927 46.742L684.381 47.6328ZM668.56 45.1648H667.56V46.1648H668.56V45.1648ZM682.002 44.1705L682.502 45.0365L682.504 45.0349L682.002 44.1705ZM684.629 41.5781L683.759 41.0851L683.758 41.0883L684.629 41.5781ZM683.529 33.7124L682.841 34.4385L682.844 34.4417L683.529 33.7124ZM668.56 31.8125V30.8125H667.56V31.8125H668.56ZM664.157 49H665.157V12.6364H664.157H663.157V49H664.157ZM664.157 12.6364V13.6364H686.103V12.6364V11.6364H664.157V12.6364ZM686.103 12.6364H685.103V16.5426H686.103H687.103V12.6364H686.103ZM686.103 16.5426V15.5426H668.56V16.5426V17.5426H686.103V16.5426ZM668.56 16.5426H667.56V27.9062H668.56H669.56V16.5426H668.56ZM668.56 27.9062V28.9062H677.793V27.9062V26.9062H668.56V27.9062ZM677.793 27.9062V28.9062C680.294 28.9062 682.333 29.316 683.95 30.0873L684.381 29.1847L684.811 28.282C682.854 27.3488 680.502 26.9062 677.793 26.9062V27.9062ZM684.381 29.1847L683.953 30.0884C685.592 30.8648 686.794 31.9381 687.605 33.3007L688.465 32.7891L689.324 32.2775C688.289 30.5387 686.768 29.2091 684.809 28.2809L684.381 29.1847ZM688.465 32.7891L687.608 33.3055C688.435 34.6763 688.867 36.3204 688.867 38.2756H689.867H690.867C690.867 36.0168 690.365 34.0031 689.321 32.2726L688.465 32.7891ZM689.867 38.2756H688.867C688.867 40.2298 688.435 41.9105 687.6 43.3486L688.465 43.8509L689.329 44.3531C690.364 42.5715 690.867 40.5353 690.867 38.2756H689.867ZM688.465 43.8509L687.597 43.3533C686.779 44.7792 685.57 45.9095 683.929 46.7407L684.381 47.6328L684.833 48.5249C686.79 47.5332 688.303 46.1422 689.332 44.3484L688.465 43.8509ZM684.381 47.6328L683.927 46.742C682.315 47.5635 680.285 48 677.793 48V49V50C680.51 50 682.871 49.525 684.835 48.5237L684.381 47.6328ZM677.793 49V48H664.157V49V50H677.793V49ZM668.56 45.1648V46.1648H677.793V45.1648V44.1648H668.56V45.1648ZM677.793 45.1648V46.1648C679.583 46.1648 681.168 45.8065 682.502 45.0365L682.002 44.1705L681.502 43.3044C680.539 43.8601 679.318 44.1648 677.793 44.1648V45.1648ZM682.002 44.1705L682.504 45.0349C683.801 44.2806 684.813 43.2937 685.501 42.0679L684.629 41.5781L683.758 41.0883C683.262 41.9695 682.522 42.7109 681.499 43.306L682.002 44.1705ZM684.629 41.5781L685.499 42.0711C686.185 40.8609 686.535 39.5672 686.535 38.2045H685.535H684.535C684.535 39.2093 684.281 40.1647 683.759 41.0851L684.629 41.5781ZM685.535 38.2045H686.535C686.535 36.1719 685.74 34.4153 684.213 32.983L683.529 33.7124L682.844 34.4417C683.993 35.5189 684.535 36.7571 684.535 38.2045H685.535ZM683.529 33.7124L684.216 32.9862C682.636 31.4898 680.444 30.8125 677.793 30.8125V31.8125V32.8125C680.115 32.8125 681.746 33.4018 682.841 34.4385L683.529 33.7124ZM677.793 31.8125V30.8125H668.56V31.8125V32.8125H677.793V31.8125ZM668.56 31.8125H667.56V45.1648H668.56H669.56V31.8125H668.56ZM698.608 49V50H699.314L699.55 49.3345L698.608 49ZM693.991 49L693.052 48.6553L692.559 50H693.991V49ZM707.343 12.6364V11.6364H706.645L706.405 12.2917L707.343 12.6364ZM711.889 12.6364L712.828 12.2917L712.587 11.6364H711.889V12.6364ZM725.241 49V50H726.674L726.18 48.6553L725.241 49ZM720.625 49L719.682 49.3345L719.918 50H720.625V49ZM709.758 18.3892L710.701 18.0547L710.464 17.3892H709.758V18.3892ZM709.474 18.3892V17.3892H708.768L708.532 18.0547L709.474 18.3892ZM700.312 34.7955V33.7955H699.312V34.7955H700.312ZM718.92 34.7955H719.92V33.7955H718.92V34.7955ZM718.92 38.7017V39.7017H719.92V38.7017H718.92ZM700.312 38.7017H699.312V39.7017H700.312V38.7017ZM698.608 49V48H693.991V49V50H698.608V49ZM693.991 49L694.93 49.3447L708.282 12.981L707.343 12.6364L706.405 12.2917L693.052 48.6553L693.991 49ZM707.343 12.6364V13.6364H711.889V12.6364V11.6364H707.343V12.6364ZM711.889 12.6364L710.95 12.981L724.302 49.3447L725.241 49L726.18 48.6553L712.828 12.2917L711.889 12.6364ZM725.241 49V48H720.625V49V50H725.241V49ZM720.625 49L721.567 48.6655L710.701 18.0547L709.758 18.3892L708.816 18.7237L719.682 49.3345L720.625 49ZM709.758 18.3892V17.3892H709.474V18.3892V19.3892H709.758V18.3892ZM709.474 18.3892L708.532 18.0547L697.665 48.6655L698.608 49L699.55 49.3345L710.416 18.7237L709.474 18.3892ZM700.312 34.7955V35.7955H718.92V34.7955V33.7955H700.312V34.7955ZM718.92 34.7955H717.92V38.7017H718.92H719.92V34.7955H718.92ZM718.92 38.7017V37.7017H700.312V38.7017V39.7017H718.92V38.7017ZM700.312 38.7017H701.312V34.7955H700.312H699.312V38.7017H700.312ZM736.285 48.2898L735.881 49.2046L735.883 49.2055L736.285 48.2898ZM731.935 44.9339L731.13 45.5276L731.136 45.535L731.935 44.9339ZM730.195 39.9091V38.9091H729.144L729.196 39.9587L730.195 39.9091ZM734.669 39.9091L735.666 39.8285L735.592 38.9091H734.669V39.9091ZM735.877 42.9453L735.108 43.5855L735.113 43.5908L735.877 42.9453ZM738.664 44.8984L738.291 45.8263V45.8263L738.664 44.8984ZM749.478 42.5014L748.661 41.924V41.924L749.478 42.5014ZM749.513 35.5945L748.672 36.1357L748.675 36.1401L749.513 35.5945ZM746.601 33.1797L746.188 34.0903V34.0903L746.601 33.1797ZM739.002 32.3097H738.002V33.3097H739.002V32.3097ZM739.002 28.4034V27.4034H738.002V28.4034H739.002ZM745.713 27.6222L745.286 26.7182L745.282 26.72L745.713 27.6222ZM748.288 25.4205L747.454 24.8681L747.449 24.8755L748.288 25.4205ZM748.412 18.8686L749.271 18.3558V18.3558L748.412 18.8686ZM746.104 16.7379L745.644 17.6259L745.648 17.6281L746.104 16.7379ZM739.073 16.6669L739.451 17.5926L739.456 17.5906L739.073 16.6669ZM736.374 18.6378L737.147 19.2716L737.152 19.2664L736.374 18.6378ZM735.238 21.7273V22.7273H736.19L736.236 21.7762L735.238 21.7273ZM730.976 21.7273L729.977 21.69L729.938 22.7273H730.976V21.7273ZM732.698 16.7202L733.498 17.3212L733.5 17.3181L732.698 16.7202ZM736.924 13.3466L736.507 12.4379L736.504 12.439L736.924 13.3466ZM748.483 13.5064L747.991 14.3766L747.995 14.3793L748.483 13.5064ZM752.194 17.0753L751.331 17.5796V17.5796L752.194 17.0753ZM751.875 27.1072L751.073 26.5093L751.07 26.5136L751.875 27.1072ZM747.524 30.108L747.234 29.151L746.524 29.3662V30.108H747.524ZM747.524 30.392H746.524V31.2406L747.362 31.3787L747.524 30.392ZM752.904 33.3217L752.131 33.9556L752.133 33.9585L752.904 33.3217ZM753.224 44.4545L752.399 43.8899L752.398 43.8912L753.224 44.4545ZM748.856 48.1477L749.294 49.0467V49.0467L748.856 48.1477ZM742.553 49.4972V48.4972C740.324 48.4972 738.375 48.1148 736.687 47.374L736.285 48.2898L735.883 49.2055C737.864 50.0746 740.094 50.4972 742.553 50.4972V49.4972ZM736.285 48.2898L736.689 47.375C735.005 46.6312 733.697 45.6137 732.734 44.3329L731.935 44.9339L731.136 45.535C732.327 47.1188 733.92 48.3385 735.881 49.2046L736.285 48.2898ZM731.935 44.9339L732.74 44.3403C731.799 43.0647 731.279 41.5818 731.194 39.8595L730.195 39.9091L729.196 39.9587C729.3 42.0479 729.941 43.915 731.13 45.5276L731.935 44.9339ZM730.195 39.9091V40.9091H734.669V39.9091V38.9091H730.195V39.9091ZM734.669 39.9091L733.673 39.9896C733.783 41.3542 734.258 42.565 735.108 43.5855L735.877 42.9453L736.645 42.3051C736.075 41.6211 735.745 40.8078 735.666 39.8285L734.669 39.9091ZM735.877 42.9453L735.113 43.5908C735.941 44.5706 737.011 45.3115 738.291 45.8263L738.664 44.8984L739.037 43.9706C738.021 43.5621 737.233 43.0009 736.641 42.2999L735.877 42.9453ZM738.664 44.8984L738.291 45.8263C739.572 46.3413 740.974 46.5909 742.482 46.5909V45.5909V44.5909C741.197 44.5909 740.053 44.3788 739.037 43.9706L738.664 44.8984ZM742.482 45.5909V46.5909C744.161 46.5909 745.69 46.298 747.048 45.6857L746.637 44.7741L746.226 43.8626C745.169 44.3393 743.928 44.5909 742.482 44.5909V45.5909ZM746.637 44.7741L747.048 45.6857C748.399 45.0765 749.493 44.2111 750.294 43.0789L749.478 42.5014L748.661 41.924C748.089 42.733 747.289 43.3828 746.226 43.8626L746.637 44.7741ZM749.478 42.5014L750.294 43.0789C751.109 41.9264 751.507 40.5967 751.507 39.1278H750.507H749.507C749.507 40.2158 749.219 41.1351 748.661 41.924L749.478 42.5014ZM750.507 39.1278H751.507C751.507 37.6168 751.13 36.2454 750.351 35.0488L749.513 35.5945L748.675 36.1401C749.222 36.9795 749.507 37.9636 749.507 39.1278H750.507ZM749.513 35.5945L750.354 35.0532C749.572 33.839 748.442 32.9166 747.014 32.269L746.601 33.1797L746.188 34.0903C747.318 34.6028 748.128 35.2902 748.672 36.1357L749.513 35.5945ZM746.601 33.1797L747.014 32.269C745.572 31.6147 743.86 31.3097 741.914 31.3097V32.3097V33.3097C743.661 33.3097 745.073 33.5847 746.188 34.0903L746.601 33.1797ZM741.914 32.3097V31.3097H739.002V32.3097V33.3097H741.914V32.3097ZM739.002 32.3097H740.002V28.4034H739.002H738.002V32.3097H739.002ZM739.002 28.4034V29.4034H741.914V28.4034V27.4034H739.002V28.4034ZM741.914 28.4034V29.4034C743.478 29.4034 744.897 29.121 746.145 28.5243L745.713 27.6222L745.282 26.72C744.351 27.165 743.237 27.4034 741.914 27.4034V28.4034ZM745.713 27.6222L746.141 28.5261C747.396 27.9324 748.402 27.08 749.126 25.9654L748.288 25.4205L747.449 24.8755C746.943 25.6549 746.233 26.2702 745.286 26.7182L745.713 27.6222ZM748.288 25.4205L749.122 25.9727C749.871 24.842 750.229 23.5318 750.229 22.0824H749.229H748.229C748.229 23.1898 747.96 24.105 747.454 24.8682L748.288 25.4205ZM749.229 22.0824H750.229C750.229 20.7 749.922 19.4455 749.271 18.3558L748.412 18.8686L747.554 19.3815C747.992 20.1146 748.229 21.0027 748.229 22.0824H749.229ZM748.412 18.8686L749.271 18.3558C748.625 17.2747 747.712 16.4376 746.56 15.8478L746.104 16.7379L745.648 17.6281C746.485 18.0562 747.111 18.6396 747.554 19.3815L748.412 18.8686ZM746.104 16.7379L746.564 15.85C745.413 15.2535 744.088 14.9744 742.624 14.9744V15.9744V16.9744C743.834 16.9744 744.83 17.2043 745.644 17.6258L746.104 16.7379ZM742.624 15.9744V14.9744C741.243 14.9744 739.929 15.2291 738.69 15.7432L739.073 16.6669L739.456 17.5906C740.442 17.1814 741.495 16.9744 742.624 16.9744V15.9744ZM739.073 16.6669L738.694 15.7412C737.449 16.2502 736.408 17.0048 735.596 18.0092L736.374 18.6378L737.152 19.2664C737.737 18.5426 738.495 17.9833 739.451 17.5926L739.073 16.6669ZM736.374 18.6378L735.6 18.004C734.753 19.0382 734.307 20.2788 734.239 21.6783L735.238 21.7273L736.236 21.7762C736.286 20.761 736.598 19.9419 737.147 19.2716L736.374 18.6378ZM735.238 21.7273V20.7273H730.976V21.7273V22.7273H735.238V21.7273ZM730.976 21.7273L731.975 21.7645C732.039 20.0489 732.551 18.5797 733.498 17.3212L732.698 16.7202L731.899 16.1191C730.691 17.7252 730.055 19.5941 729.977 21.69L730.976 21.7273ZM732.698 16.7202L733.5 17.3181C734.471 16.0159 735.745 14.9939 737.344 14.2542L736.924 13.3466L736.504 12.439C734.623 13.3092 733.08 14.5362 731.897 16.1223L732.698 16.7202ZM736.924 13.3466L737.342 14.2553C738.952 13.5156 740.731 13.1392 742.695 13.1392V12.1392V11.1392C740.468 11.1392 738.401 11.5677 736.507 12.4379L736.924 13.3466ZM742.695 12.1392V13.1392C744.808 13.1392 746.56 13.5668 747.991 14.3766L748.483 13.5064L748.976 12.6362C747.187 11.6231 745.08 11.1392 742.695 11.1392V12.1392ZM748.483 13.5064L747.995 14.3793C749.462 15.1987 750.563 16.2659 751.331 17.5796L752.194 17.0753L753.058 16.571C752.097 14.9254 750.725 13.6133 748.971 12.6334L748.483 13.5064ZM752.194 17.0753L751.331 17.5796C752.105 18.9059 752.49 20.3298 752.49 21.8693H753.49H754.49C754.49 19.976 754.011 18.2039 753.058 16.571L752.194 17.0753ZM753.49 21.8693H752.49C752.49 23.7324 752.004 25.2611 751.073 26.5093L751.875 27.1072L752.676 27.7051C753.899 26.0652 754.49 24.1018 754.49 21.8693H753.49ZM751.875 27.1072L751.07 26.5136C750.141 27.7722 748.878 28.6526 747.234 29.151L747.524 30.108L747.815 31.0649C749.841 30.4506 751.477 29.3306 752.679 27.7009L751.875 27.1072ZM747.524 30.108H746.524V30.392H747.524H748.524V30.108H747.524ZM747.524 30.392L747.362 31.3787C749.455 31.724 751.017 32.596 752.131 33.9556L752.904 33.3217L753.678 32.6879C752.212 30.8988 750.187 29.8177 747.687 29.4054L747.524 30.392ZM752.904 33.3217L752.133 33.9585C753.255 35.3171 753.84 37.0178 753.84 39.1278H754.84H755.84C755.84 36.6214 755.134 34.4514 753.676 32.685L752.904 33.3217ZM754.84 39.1278H753.84C753.84 40.9109 753.358 42.4881 752.399 43.8899L753.224 44.4545L754.049 45.0192C755.245 43.2723 755.84 41.2984 755.84 39.1278H754.84ZM753.224 44.4545L752.398 43.8912C751.439 45.2977 750.122 46.4186 748.418 47.2487L748.856 48.1477L749.294 49.0467C751.283 48.0777 752.879 46.7364 754.05 45.0179L753.224 44.4545ZM748.856 48.1477L748.418 47.2487C746.727 48.0728 744.779 48.4972 742.553 48.4972V49.4972V50.4972C745.038 50.4972 747.292 50.0219 749.294 49.0467L748.856 48.1477ZM764.233 49V50H764.939L765.175 49.3345L764.233 49ZM759.616 49L758.677 48.6553L758.184 50H759.616V49ZM772.968 12.6364V11.6364H772.27L772.03 12.2917L772.968 12.6364ZM777.514 12.6364L778.453 12.2917L778.212 11.6364H777.514V12.6364ZM790.866 49V50H792.299L791.805 48.6553L790.866 49ZM786.25 49L785.307 49.3345L785.543 50H786.25V49ZM775.383 18.3892L776.326 18.0547L776.089 17.3892H775.383V18.3892ZM775.099 18.3892V17.3892H774.393L774.157 18.0547L775.099 18.3892ZM765.937 34.7955V33.7955H764.937V34.7955H765.937ZM784.545 34.7955H785.545V33.7955H784.545V34.7955ZM784.545 38.7017V39.7017H785.545V38.7017H784.545ZM765.937 38.7017H764.937V39.7017H765.937V38.7017ZM764.233 49V48H759.616V49V50H764.233V49ZM759.616 49L760.555 49.3447L773.907 12.981L772.968 12.6364L772.03 12.2917L758.677 48.6553L759.616 49ZM772.968 12.6364V13.6364H777.514V12.6364V11.6364H772.968V12.6364ZM777.514 12.6364L776.575 12.981L789.927 49.3447L790.866 49L791.805 48.6553L778.453 12.2917L777.514 12.6364ZM790.866 49V48H786.25V49V50H790.866V49ZM786.25 49L787.192 48.6655L776.326 18.0547L775.383 18.3892L774.441 18.7237L785.307 49.3345L786.25 49ZM775.383 18.3892V17.3892H775.099V18.3892V19.3892H775.383V18.3892ZM775.099 18.3892L774.157 18.0547L763.29 48.6655L764.233 49L765.175 49.3345L776.041 18.7237L775.099 18.3892ZM765.937 34.7955V35.7955H784.545V34.7955V33.7955H765.937V34.7955ZM784.545 34.7955H783.545V38.7017H784.545H785.545V34.7955H784.545ZM784.545 38.7017V37.7017H765.937V38.7017V39.7017H784.545V38.7017ZM765.937 38.7017H766.937V34.7955H765.937H764.937V38.7017H765.937Z" fill="#21422B" mask="url(#path-1-outside-1_32_48)"/>
<mask id="path-3-outside-2_32_48" maskUnits="userSpaceOnUse" x="377.281" y="69" width="110" height="44" fill="black">
<rect fill="white" x="377.281" y="69" width="110" height="44"/>
<path d="M405.301 71V77.9727H387.215V111H378.758V71H405.301ZM445.647 91C445.647 95.362 444.82 99.0729 443.167 102.133C441.526 105.193 439.287 107.53 436.448 109.145C433.622 110.746 430.445 111.547 426.917 111.547C423.362 111.547 420.172 110.74 417.346 109.125C414.521 107.51 412.288 105.173 410.647 102.113C409.007 99.0534 408.186 95.349 408.186 91C408.186 86.638 409.007 82.9271 410.647 79.8672C412.288 76.8073 414.521 74.4766 417.346 72.875C420.172 71.2604 423.362 70.4531 426.917 70.4531C430.445 70.4531 433.622 71.2604 436.448 72.875C439.287 74.4766 441.526 76.8073 443.167 79.8672C444.82 82.9271 445.647 86.638 445.647 91ZM437.073 91C437.073 88.1745 436.65 85.7917 435.803 83.8516C434.97 81.9115 433.792 80.4401 432.268 79.4375C430.745 78.4349 428.961 77.9336 426.917 77.9336C424.872 77.9336 423.089 78.4349 421.565 79.4375C420.042 80.4401 418.857 81.9115 418.01 83.8516C417.177 85.7917 416.76 88.1745 416.76 91C416.76 93.8255 417.177 96.2083 418.01 98.1484C418.857 100.089 420.042 101.56 421.565 102.562C423.089 103.565 424.872 104.066 426.917 104.066C428.961 104.066 430.745 103.565 432.268 102.562C433.792 101.56 434.97 100.089 435.803 98.1484C436.65 96.2083 437.073 93.8255 437.073 91ZM453.533 71H461.756V83.8906C461.756 85.4271 462.023 86.6641 462.556 87.6016C463.09 88.526 463.917 89.1966 465.037 89.6133C466.17 90.0169 467.622 90.2188 469.392 90.2188C470.017 90.2188 470.753 90.1992 471.599 90.1602C472.446 90.1081 473.318 90.0365 474.217 89.9453C475.128 89.8542 475.987 89.7435 476.795 89.6133C477.602 89.4831 478.273 89.3333 478.806 89.1641V95.8437C478.26 96.026 477.576 96.1888 476.756 96.332C475.948 96.4622 475.095 96.5794 474.197 96.6836C473.299 96.7747 472.426 96.8464 471.58 96.8984C470.733 96.9505 470.004 96.9766 469.392 96.9766C466.176 96.9766 463.377 96.5208 460.994 95.6094C458.611 94.6849 456.769 93.2591 455.467 91.332C454.177 89.4049 453.533 86.9245 453.533 83.8906V71ZM477.342 71H485.603V111H477.342V71Z"/>
</mask>
<path d="M405.301 71V77.9727H387.215V111H378.758V71H405.301ZM445.647 91C445.647 95.362 444.82 99.0729 443.167 102.133C441.526 105.193 439.287 107.53 436.448 109.145C433.622 110.746 430.445 111.547 426.917 111.547C423.362 111.547 420.172 110.74 417.346 109.125C414.521 107.51 412.288 105.173 410.647 102.113C409.007 99.0534 408.186 95.349 408.186 91C408.186 86.638 409.007 82.9271 410.647 79.8672C412.288 76.8073 414.521 74.4766 417.346 72.875C420.172 71.2604 423.362 70.4531 426.917 70.4531C430.445 70.4531 433.622 71.2604 436.448 72.875C439.287 74.4766 441.526 76.8073 443.167 79.8672C444.82 82.9271 445.647 86.638 445.647 91ZM437.073 91C437.073 88.1745 436.65 85.7917 435.803 83.8516C434.97 81.9115 433.792 80.4401 432.268 79.4375C430.745 78.4349 428.961 77.9336 426.917 77.9336C424.872 77.9336 423.089 78.4349 421.565 79.4375C420.042 80.4401 418.857 81.9115 418.01 83.8516C417.177 85.7917 416.76 88.1745 416.76 91C416.76 93.8255 417.177 96.2083 418.01 98.1484C418.857 100.089 420.042 101.56 421.565 102.562C423.089 103.565 424.872 104.066 426.917 104.066C428.961 104.066 430.745 103.565 432.268 102.562C433.792 101.56 434.97 100.089 435.803 98.1484C436.65 96.2083 437.073 93.8255 437.073 91ZM453.533 71H461.756V83.8906C461.756 85.4271 462.023 86.6641 462.556 87.6016C463.09 88.526 463.917 89.1966 465.037 89.6133C466.17 90.0169 467.622 90.2188 469.392 90.2188C470.017 90.2188 470.753 90.1992 471.599 90.1602C472.446 90.1081 473.318 90.0365 474.217 89.9453C475.128 89.8542 475.987 89.7435 476.795 89.6133C477.602 89.4831 478.273 89.3333 478.806 89.1641V95.8437C478.26 96.026 477.576 96.1888 476.756 96.332C475.948 96.4622 475.095 96.5794 474.197 96.6836C473.299 96.7747 472.426 96.8464 471.58 96.8984C470.733 96.9505 470.004 96.9766 469.392 96.9766C466.176 96.9766 463.377 96.5208 460.994 95.6094C458.611 94.6849 456.769 93.2591 455.467 91.332C454.177 89.4049 453.533 86.9245 453.533 83.8906V71ZM477.342 71H485.603V111H477.342V71Z" fill="#21422B"/>
<path d="M405.301 71H406.301V70H405.301V71ZM405.301 77.9727V78.9727H406.301V77.9727H405.301ZM387.215 77.9727V76.9727H386.215V77.9727H387.215ZM387.215 111V112H388.215V111H387.215ZM378.758 111H377.758V112H378.758V111ZM378.758 71V70H377.758V71H378.758ZM405.301 71H404.301V77.9727H405.301H406.301V71H405.301ZM405.301 77.9727V76.9727H387.215V77.9727V78.9727H405.301V77.9727ZM387.215 77.9727H386.215V111H387.215H388.215V77.9727H387.215ZM387.215 111V110H378.758V111V112H387.215V111ZM378.758 111H379.758V71H378.758H377.758V111H378.758ZM378.758 71V72H405.301V71V70H378.758V71ZM443.167 102.133L442.287 101.657L442.285 101.66L443.167 102.133ZM436.448 109.145L436.941 110.014L436.942 110.014L436.448 109.145ZM417.346 109.125L417.843 108.257L417.346 109.125ZM410.647 102.113L409.766 102.586V102.586L410.647 102.113ZM410.647 79.8672L411.529 80.3397V80.3397L410.647 79.8672ZM417.346 72.875L417.84 73.745L417.843 73.7432L417.346 72.875ZM436.448 72.875L435.952 73.7433L435.957 73.7459L436.448 72.875ZM443.167 79.8672L442.285 80.3397L442.287 80.3426L443.167 79.8672ZM435.803 83.8516L434.885 84.2462L434.887 84.2514L435.803 83.8516ZM432.268 79.4375L431.719 80.2728V80.2728L432.268 79.4375ZM421.565 79.4375L422.115 80.2728V80.2728L421.565 79.4375ZM418.01 83.8516L417.094 83.4517L417.092 83.4569L418.01 83.8516ZM418.01 98.1484L417.092 98.5431L417.094 98.5483L418.01 98.1484ZM421.565 102.562L422.115 101.727V101.727L421.565 102.562ZM432.268 102.562L431.719 101.727V101.727L432.268 102.562ZM435.803 98.1484L434.887 97.7486L434.885 97.7538L435.803 98.1484ZM445.647 91H444.647C444.647 95.2374 443.844 98.7761 442.287 101.657L443.167 102.133L444.046 102.608C445.797 99.3698 446.647 95.4866 446.647 91H445.647ZM443.167 102.133L442.285 101.66C440.728 104.565 438.618 106.76 435.954 108.275L436.448 109.145L436.942 110.014C439.955 108.3 442.324 105.82 444.048 102.605L443.167 102.133ZM436.448 109.145L435.955 108.275C433.293 109.784 430.288 110.547 426.917 110.547V111.547V112.547C430.603 112.547 433.952 111.709 436.941 110.014L436.448 109.145ZM426.917 111.547V110.547C423.52 110.547 420.503 109.777 417.843 108.257L417.346 109.125L416.85 109.993C419.841 111.702 423.205 112.547 426.917 112.547V111.547ZM417.346 109.125L417.843 108.257C415.191 106.742 413.087 104.547 411.529 101.641L410.647 102.113L409.766 102.586C411.489 105.8 413.851 108.279 416.85 109.993L417.346 109.125ZM410.647 102.113L411.529 101.641C409.983 98.7584 409.186 95.2249 409.186 91H408.186H407.186C407.186 95.473 408.03 99.3484 409.766 102.586L410.647 102.113ZM408.186 91H409.186C409.186 86.7615 409.983 83.2217 411.529 80.3397L410.647 79.8672L409.766 79.3947C408.03 82.6325 407.186 86.5146 407.186 91H408.186ZM410.647 79.8672L411.529 80.3397C413.086 77.4343 415.19 75.2469 417.84 73.745L417.346 72.875L416.853 72.005C413.852 73.7062 411.489 76.1803 409.766 79.3947L410.647 79.8672ZM417.346 72.875L417.843 73.7432C420.503 72.2228 423.52 71.4531 426.917 71.4531V70.4531V69.4531C423.205 69.4531 419.841 70.298 416.85 72.0068L417.346 72.875ZM426.917 70.4531V71.4531C430.286 71.4531 433.29 72.2222 435.952 73.7432L436.448 72.875L436.944 72.0068C433.955 70.2986 430.604 69.4531 426.917 69.4531V70.4531ZM436.448 72.875L435.957 73.7459C438.619 75.2482 440.728 77.4355 442.285 80.3397L443.167 79.8672L444.048 79.3947C442.324 76.1791 439.954 73.7049 436.939 72.0041L436.448 72.875ZM443.167 79.8672L442.287 80.3426C443.844 83.2239 444.647 86.7626 444.647 91H445.647H446.647C446.647 86.5134 445.797 82.6302 444.046 79.3917L443.167 79.8672ZM437.073 91H438.073C438.073 88.0805 437.637 85.5526 436.72 83.4517L435.803 83.8516L434.887 84.2514C435.663 86.0307 436.073 88.2684 436.073 91H437.073ZM435.803 83.8516L436.722 83.4569C435.824 81.366 434.53 79.7285 432.818 78.6022L432.268 79.4375L431.719 80.2728C433.054 81.1517 434.116 82.4569 434.885 84.2462L435.803 83.8516ZM432.268 79.4375L432.818 78.6022C431.112 77.4795 429.132 76.9336 426.917 76.9336V77.9336V78.9336C428.79 78.9336 430.378 79.3903 431.719 80.2728L432.268 79.4375ZM426.917 77.9336V76.9336C424.702 76.9336 422.721 77.4795 421.015 78.6022L421.565 79.4375L422.115 80.2728C423.456 79.3903 425.043 78.9336 426.917 78.9336V77.9336ZM421.565 79.4375L421.015 78.6022C419.305 79.7276 418.005 81.3632 417.094 83.4517L418.01 83.8516L418.927 84.2514C419.709 82.4598 420.778 81.1526 422.115 80.2728L421.565 79.4375ZM418.01 83.8516L417.092 83.4569C416.19 85.5562 415.76 88.0822 415.76 91H416.76H417.76C417.76 88.2668 418.164 86.0271 418.929 84.2462L418.01 83.8516ZM416.76 91H415.76C415.76 93.9178 416.19 96.4438 417.092 98.5431L418.01 98.1484L418.929 97.7538C418.164 95.9729 417.76 93.7332 417.76 91H416.76ZM418.01 98.1484L417.094 98.5483C418.005 100.637 419.305 102.272 421.015 103.398L421.565 102.562L422.115 101.727C420.778 100.847 419.709 99.5402 418.927 97.7486L418.01 98.1484ZM421.565 102.562L421.015 103.398C422.721 104.521 424.702 105.066 426.917 105.066V104.066V103.066C425.043 103.066 423.456 102.61 422.115 101.727L421.565 102.562ZM426.917 104.066V105.066C429.132 105.066 431.112 104.521 432.818 103.398L432.268 102.562L431.719 101.727C430.378 102.61 428.79 103.066 426.917 103.066V104.066ZM432.268 102.562L432.818 103.398C434.53 102.271 435.824 100.634 436.722 98.5431L435.803 98.1484L434.885 97.7538C434.116 99.5431 433.054 100.848 431.719 101.727L432.268 102.562ZM435.803 98.1484L436.72 98.5483C437.637 96.4474 438.073 93.9195 438.073 91H437.073H436.073C436.073 93.7316 435.663 95.9693 434.887 97.7486L435.803 98.1484ZM453.533 71V70H452.533V71H453.533ZM461.756 71H462.756V70H461.756V71ZM462.556 87.6016L461.687 88.0964L461.69 88.1016L462.556 87.6016ZM465.037 89.6133L464.688 90.5506L464.701 90.5553L465.037 89.6133ZM471.599 90.1602L471.645 91.1591L471.653 91.1587L471.661 91.1583L471.599 90.1602ZM474.217 89.9453L474.117 88.9503L474.116 88.9504L474.217 89.9453ZM476.795 89.6133L476.954 90.6005V90.6005L476.795 89.6133ZM478.806 89.1641H479.806V87.7979L478.504 88.2108L478.806 89.1641ZM478.806 95.8438L479.123 96.7924L479.806 96.5645V95.8438H478.806ZM476.756 96.332L476.915 97.3194L476.928 97.3171L476.756 96.332ZM474.197 96.6836L474.298 97.6785L474.305 97.6778L474.312 97.6769L474.197 96.6836ZM471.58 96.8984L471.518 95.9003V95.9003L471.58 96.8984ZM460.994 95.6094L460.632 96.5417L460.637 96.5434L460.994 95.6094ZM455.467 91.332L454.635 91.888L454.638 91.8919L455.467 91.332ZM477.342 71V70H476.342V71H477.342ZM485.603 71H486.603V70H485.603V71ZM485.603 111V112H486.603V111H485.603ZM477.342 111H476.342V112H477.342V111ZM453.533 71V72H461.756V71V70H453.533V71ZM461.756 71H460.756V83.8906H461.756H462.756V71H461.756ZM461.756 83.8906H460.756C460.756 85.5312 461.039 86.9575 461.687 88.0964L462.556 87.6016L463.425 87.1067C463.006 86.3706 462.756 85.323 462.756 83.8906H461.756ZM462.556 87.6016L461.69 88.1016C462.355 89.2517 463.378 90.063 464.688 90.5505L465.037 89.6133L465.386 88.6761C464.456 88.3302 463.826 87.8004 463.422 87.1015L462.556 87.6016ZM465.037 89.6133L464.701 90.5553C465.98 91.0109 467.556 91.2188 469.392 91.2188V90.2188V89.2188C467.687 89.2188 466.36 89.023 465.373 88.6713L465.037 89.6133ZM469.392 90.2188V91.2188C470.037 91.2188 470.789 91.1986 471.645 91.1591L471.599 90.1602L471.553 89.1612C470.717 89.1998 469.998 89.2188 469.392 89.2188V90.2188ZM471.599 90.1602L471.661 91.1583C472.521 91.1053 473.407 91.0326 474.317 90.9402L474.217 89.9453L474.116 88.9504C473.229 89.0403 472.37 89.1108 471.538 89.162L471.599 90.1602ZM474.217 89.9453L474.316 90.9403C475.245 90.8474 476.125 90.7343 476.954 90.6005L476.795 89.6133L476.635 88.626C475.85 88.7527 475.011 88.8609 474.117 88.9503L474.217 89.9453ZM476.795 89.6133L476.954 90.6005C477.79 90.4657 478.512 90.3064 479.109 90.1173L478.806 89.1641L478.504 88.2108C478.033 88.3602 477.414 88.5004 476.635 88.626L476.795 89.6133ZM478.806 89.1641H477.806V95.8438H478.806H479.806V89.1641H478.806ZM478.806 95.8438L478.49 94.8951C478.006 95.0564 477.374 95.2088 476.584 95.3469L476.756 96.332L476.928 97.3171C477.777 97.1688 478.513 96.9956 479.123 96.7924L478.806 95.8438ZM476.756 96.332L476.596 95.3448C475.805 95.4724 474.967 95.5876 474.082 95.6902L474.197 96.6836L474.312 97.6769C475.224 97.5712 476.091 97.4521 476.915 97.3193L476.756 96.332ZM474.197 96.6836L474.096 95.6887C473.21 95.7786 472.351 95.8491 471.518 95.9003L471.58 96.8984L471.641 97.8965C472.502 97.8436 473.387 97.7709 474.298 97.6785L474.197 96.6836ZM471.58 96.8984L471.518 95.9003C470.685 95.9516 469.978 95.9766 469.392 95.9766V96.9766V97.9766C470.031 97.9766 470.782 97.9495 471.641 97.8965L471.58 96.8984ZM469.392 96.9766V95.9766C466.268 95.9766 463.595 95.5335 461.351 94.6754L460.994 95.6094L460.637 96.5434C463.159 97.5082 466.085 97.9766 469.392 97.9766V96.9766ZM460.994 95.6094L461.356 94.6771C459.143 93.8187 457.472 92.5138 456.295 90.7722L455.467 91.332L454.638 91.8919C456.065 94.0044 458.079 95.5511 460.632 96.5417L460.994 95.6094ZM455.467 91.332L456.298 90.776C455.148 89.0573 454.533 86.7868 454.533 83.8906H453.533H452.533C452.533 87.0622 453.207 89.7526 454.635 91.888L455.467 91.332ZM453.533 83.8906H454.533V71H453.533H452.533V83.8906H453.533ZM477.342 71V72H485.603V71V70H477.342V71ZM485.603 71H484.603V111H485.603H486.603V71H485.603ZM485.603 111V110H477.342V111V112H485.603V111ZM477.342 111H478.342V71H477.342H476.342V111H477.342Z" fill="#21422B" mask="url(#path-3-outside-2_32_48)"/>
<path d="M191.281 68.5L225.781 19L246.781 42M246.781 42L263.781 19L321.781 102M246.781 42L205.281 105M337.781 68.5L302.281 19L246.781 105" stroke="#21422B" stroke-width="10"/>
<path d="M186.281 105H343.281" stroke="#21422B" stroke-width="14"/>
<path d="M10.781 100.5H50.281" stroke="#21422B" stroke-width="20"/>
<path d="M0.281006 22.5C7.48101 22.5 10.281 29.5 10.281 32" stroke="#21422B" stroke-width="20"/>
<path d="M154.781 23C130.836 23 109.465 31.307 93.781 45.7704M66.781 110.5C66.781 83.6543 77.0423 61.2063 93.781 45.7704M93.781 12V45.7704M51.781 12V110.5M10.281 31.5V110.5" stroke="#21422B" stroke-width="20"/>
<path d="M153.781 99.5C145.781 99.5 142.781 104 142.781 110.5" stroke="#21422B" stroke-width="20"/>
<path d="M105.281 110.5C105.281 90 118.281 70.5 137.281 64.5C142.031 63 144.781 58 143.781 53" stroke="#21422B" stroke-width="20"/>
</svg>
